<?xml version="1.0" standalone="no"?>
<!DOCTYPE svg PUBLIC "-//W3C//DTD SVG 1.1//EN" "http://www.w3.org/Graphics/SVG/1.1/DTD/svg11.dtd" >
<svg xmlns="http://www.w3.org/2000/svg">
<metadata></metadata>
<defs>
<font id="a_oldtyperregular" horiz-adv-x="1320" >
<font-face units-per-em="2048" ascent="1638" descent="-410" />
<missing-glyph horiz-adv-x="843" />
<glyph horiz-adv-x="2048" />
<glyph horiz-adv-x="2048" />
<glyph unicode="&#xd;" horiz-adv-x="843" />
<glyph unicode=" "  horiz-adv-x="843" />
<glyph unicode="&#x09;" horiz-adv-x="843" />
<glyph unicode="&#xa0;" horiz-adv-x="843" />
<glyph unicode="!" horiz-adv-x="659" d="M205 94q0 53 35.5 90t89.5 37q53 0 90 -38t37 -91q0 -51 -38 -88t-89 -37q-53 0 -89 37t-36 90zM229 463v860q0 102 101 102q102 0 102 -102v-860q0 -45 -28.5 -77t-73.5 -32t-73 31t-28 78z" />
<glyph unicode="&#x22;" horiz-adv-x="604" d="M96 952v465q0 51 51 51h19q51 0 51 -51v-465q0 -51 -51 -51h-19q-51 0 -51 51zM385 952v465q0 51 51 51h21q51 0 51 -51v-465q0 -51 -51 -51h-21q-51 0 -51 51z" />
<glyph unicode="#" horiz-adv-x="1613" d="M106 481l46 125h327l99 279h-353l45 125h353l172 483h149l-170 -483h266l172 483h148l-168 -483h313l-43 -125h-319l-96 -279h337l-45 -125h-340l-168 -481h-149l172 481h-272l-172 -481h-146l170 481h-328zM629 606h268l98 279h-270z" />
<glyph unicode="$" d="M168 414q0 72 36 122t103 50q47 0 80 -29t33 -74q0 -47 -50.5 -73.5t-50.5 -38.5q0 -70 70 -117q59 -39 135 -49v489q-291 70 -291 301q0 131 79 220.5t208 119.5q0 2 -3 43t-3 72q0 123 51 123t51 -125q0 -25 -2 -59.5t-2 -36.5q59 6 146 0q0 4 -3 41t-3 63 q0 117 53 117t53 -129q0 -29 -3 -66t-3 -39q106 -27 178 -94q80 -76 80 -178q0 -117 -98 -117q-94 0 -94 74q0 25 14 49q23 35 26 43q0 35 -49 66q-39 25 -82 30v-426q150 -23 238 -108q92 -92 92 -240q0 -139 -83 -236t-222 -130q0 -4 3 -46t3 -73q0 -123 -51 -123 q-53 0 -53 127q0 27 2 62.5t2 37.5q-78 -2 -146 0q0 -4 3 -43t3 -65q0 -119 -53 -119q-51 0 -51 131q0 29 3 67l3 38q-156 23 -248 106q-104 92 -104 242zM393 1024q0 -131 131 -160v340q-131 -31 -131 -180zM590 195q49 -4 78 -5q45 0 98 7v442q-59 12 -176 37v-481z M590 840q106 -27 176 -39v424q-37 6 -76 6q-28 0 -100 -10v-381zM827 213q84 6 132.5 63.5t48.5 143.5q-1 170 -181 201v-408z" />
<glyph unicode="%" horiz-adv-x="1777" d="M86 983q0 180 74 293q86 133 256 133q109 0 260 -108.5t229 -108.5q98 0 174 68q25 20 105 122q53 68 94 68q61 0 61 -37q0 -8 -753 -1425q-25 -45 -82 -45q-55 0 -55 39q0 11 600 1144q-72 -53 -170 -53q-82 0 -150 72q16 -88 16 -154q0 -182 -73 -297 q-86 -137 -258 -137q-168 0 -254 135q-74 113 -74 291zM238 987q0 -111 36 -186q47 -98 146 -99q98 0 145 99q37 76 37 186q0 109 -37 182q-47 96 -145 97q-98 0 -146 -97q-36 -73 -36 -182zM1036 397q0 178 74 291q86 135 254 135q170 0 256 -133q76 -115 76 -293t-74 -293 q-88 -133 -258 -133q-168 0 -254 135q-74 113 -74 291zM1188 393q0 -109 35 -182q45 -100 141 -100t141 100q35 74 35 182q0 109 -35 182q-45 100 -141 101q-96 0 -141 -101q-35 -73 -35 -182z" />
<glyph unicode="&#x26;" horiz-adv-x="1675" d="M86 479q0 158 91 280t245 142q-123 74 -123 232q0 141 87 219t228 78q113 0 185 -56q80 -61 80 -172q0 -70 -39 -115t-107 -45q-100 0 -100 84q0 76 72 76q18 0 43 -10q-25 104 -136 104q-76 0 -117.5 -54t-41.5 -132q0 -90 53 -131q18 -14 100 -45q53 -20 53 -57 q0 -51 -96 -64q-131 -18 -143 -27q-72 -41 -113 -129q-35 -80 -35 -170q0 -174 129 -276q119 -92 297 -92q190 0 318 92q143 104 143 289q0 102 -55 169.5t-156 67.5q-166 0 -166 -145q0 -109 113 -109q-16 20 -16 45q0 68 65 68q90 0 90 -96q0 -72 -61 -111 q-53 -31 -129 -31q-98 0 -158.5 67t-60.5 165q0 139 102 219q92 74 236 74q43 0 129 -9.5t129 -9.5q295 0 295 238q0 184 -160 184q-129 0 -129 -110q0 -31 20 -31q14 0 31.5 17.5t34.5 17.5q78 0 78 -82q0 -117 -146 -117q-76 0 -123 59q-45 53 -45 131q0 111 76 177.5 t186 66.5q150 0 237 -82t87 -231q0 -170 -102.5 -263.5t-274.5 -93.5q-49 0 -94 13v-4q133 -88 133 -262q0 -244 -209 -392q-184 -133 -440 -133q-252 0 -414 127q-176 139 -176 385z" />
<glyph unicode="'" horiz-adv-x="311" d="M96 952v465q0 51 51 51h19q51 0 51 -51v-465q0 -51 -51 -51h-19q-51 0 -51 51z" />
<glyph unicode="(" horiz-adv-x="1036" d="M166 512q0 539 457 840q156 102 237 102q35 0 35 -20q-14 -27 -94 -78q-102 -66 -109 -70q-172 -139 -270 -346t-98 -428q0 -426 307 -725q33 -31 135 -94q94 -57 129 -103q2 -25 -35 -24q-82 0 -237 106q-457 313 -457 840z" />
<glyph unicode=")" horiz-adv-x="1036" d="M139 -410q16 27 94 76q102 61 111 68q174 135 271.5 344t97.5 434q0 424 -307 723q-25 25 -140 96q-100 63 -127 103q0 20 37 20q82 0 238 -102q457 -301 456 -840q0 -496 -391 -793q-203 -154 -303 -153q-39 0 -37 24z" />
<glyph unicode="*" horiz-adv-x="1048" d="M193 1202q0 31 22.5 55.5t52.5 24.5q20 0 107 -78q49 -47 100 -94l29 16l-12 84q-2 20 -25 75.5t-23 66.5q0 78 80 78q76 0 76 -74q0 -14 -20.5 -69.5t-22.5 -76.5l-12 -84l24 -16q51 47 103 96q82 76 106 76q31 0 52.5 -25.5t21.5 -56.5q0 -41 -113 -80 q-73 -20 -149 -43l2 -33q76 -23 153 -45q111 -39 111 -81q0 -31 -23.5 -56.5t-54.5 -25.5q-29 0 -73 51q-61 68 -66 71l-66 50l-28 -13q6 -55 39 -172q18 -45 18 -55q0 -74 -78 -74q-76 0 -75 68q0 12 20 63q16 39 35 170l-29 13l-65 -52q-2 0 -66 -71q-43 -49 -76 -49 q-31 0 -52 27.5t-21 58.5q0 39 75 61q55 14 111 29l76 32v33l-76 29q-59 12 -117 24q-72 18 -71 72z" />
<glyph unicode="+" horiz-adv-x="1746" d="M260 565v121h555v563h119v-563h553v-121h-553v-565h-119v565h-555z" />
<glyph unicode="," horiz-adv-x="659" d="M201 84q0 129 131 129q152 0 151 -207q0 -90 -59 -217q-68 -145 -143 -145q-47 0 -48 45q0 27 63.5 129t63.5 149q-160 0 -159 117z" />
<glyph unicode="-" horiz-adv-x="690" d="M106 524q0 76 66 76h373q66 0 65 -76q0 -76 -65 -75h-373q-66 0 -66 75z" />
<glyph unicode="." horiz-adv-x="659" d="M205 94q0 53 35.5 90t89.5 37q53 0 90 -37t37 -90q0 -51 -38 -89t-89 -38q-53 0 -89 37t-36 90z" />
<glyph unicode="/" horiz-adv-x="577" d="M-33 -162q0 39 8 64l457 1427q23 70 68 70q49 0 49 -39q0 -12 -14 -57l-457 -1426q-23 -70 -76 -70q-35 0 -35 31z" />
<glyph unicode="0" d="M100 692q0 303 125 494q147 227 434 227q285 0 435 -227q125 -193 125 -494q0 -303 -125 -493q-147 -227 -435 -228q-287 0 -434 228q-125 190 -125 493zM279 692q0 -229 75 -381q98 -197 305 -196q207 0 306 196q76 152 75 381q0 229 -75 379q-98 195 -306 195 q-205 0 -303 -197q-77 -152 -77 -377z" />
<glyph unicode="1" d="M260 57q0 86 105 86q18 0 53 -4t53 -4q72 0 96 39q19 26 19 100v846q0 74 -20.5 105.5t-90.5 31.5q-18 0 -53 -4t-51 -4q-80 0 -80 66q0 76 92 76q23 0 67 -6.5t66 -6.5q31 0 89.5 6.5t88.5 6.5q47 0 64.5 -15.5t17.5 -62.5q0 -27 -4 -78t-4 -78v-881q0 -72 20 -102 q25 -39 95 -39q20 0 62 4t63 4q82 0 82 -69q0 -84 -99 -84q-53 0 -161.5 9t-161.5 9t-159 -9t-159 -9q-90 0 -90 67z" />
<glyph unicode="2" d="M100 193q0 137 91.5 263t308.5 214q166 63 331 127q156 80 156 215q0 131 -108 202q-94 63 -232 64q-109 0 -203 -41q-125 -51 -125 -143q0 -31 17 -31q4 0 16.5 3t20.5 3q55 0 55 -92q0 -55 -40 -89t-97 -34q-70 0 -109 48t-39 118q0 188 162 295q139 94 338 94 q217 0 352 -92q160 -109 160 -313q0 -227 -227 -338q-213 -72 -424 -146q-232 -84 -236 -246q84 94 224 95q100 0 250.5 -111t215.5 -111q131 0 132 134q0 20 -13 30q-74 -20 -73 -20q-86 0 -86 86q0 49 37.5 82t88.5 33q84 0 130 -72q39 -61 38 -152q0 -123 -73 -207 q-76 -90 -197 -90q-94 0 -267 117t-269 117q-37 0 -76 -15q-53 -18 -54 -47q25 -18 51.5 -38.5t26.5 -51.5q0 -82 -100 -82q-78 0 -119 76q-35 61 -35 146z" />
<glyph unicode="3" d="M98 377q0 92 55.5 157.5t145.5 65.5q51 0 86 -32.5t35 -84.5q0 -61 -73 -91t-73 -44q0 -111 123 -176q104 -57 224 -57q178 0 284 84q119 92 119 264q0 266 -283 266q-35 0 -103.5 -11t-102.5 -11q-55 0 -56 47q0 33 33 65l397 406h-503q-90 0 -91 -103q0 -20 4.5 -61 t4.5 -62q0 -82 -74 -81q-72 0 -72 90q0 27 6 80t6 79q0 25 -6 71t-6 71q0 72 109 71h749q61 0 86 -8q45 -16 45 -65q0 -41 -47 -88l-362 -359q438 0 438 -393q0 -248 -168 -379q-154 -117 -410 -117q-207 0 -352 97q-168 113 -168 309z" />
<glyph unicode="4" d="M61 500q0 41 45 98l541 680q98 123 184 123q117 0 117 -148v-688h199q106 0 106 -73q0 -74 -106 -74h-199v-174q0 -117 115 -117q16 0 50 4t50 4q78 0 78 -63q0 -33 -23.5 -57.5t-56.5 -24.5q-49 0 -147.5 9t-147.5 9q-51 0 -150.5 -9t-150.5 -9q-90 0 -90 67 q0 27 20.5 52.5t45.5 25.5q16 0 51 -4t51 -4q72 0 101.5 24.5t29.5 94.5v172h-573q-139 0 -140 82zM252 565h522v654z" />
<glyph unicode="5" d="M104 336q0 78 47.5 128t122.5 50q49 0 82 -34t33 -83q0 -39 -51 -73.5t-51 -42.5q0 -78 123 -125q96 -37 190 -37q178 0 285 86q119 94 119 266q0 162 -93.5 247t-255.5 85q-104 0 -198 -47q-51 -27 -129 -90q-59 -47 -82 -48q-72 0 -72 93q0 94 19.5 280.5t19.5 278.5 q0 109 98 108h623q68 0 84 -6q51 -20 51 -289q0 -68 -65 -67q-68 0 -68 76v7v7q0 57 -23 82q-35 39 -139 39h-358q-51 0 -56 -58l-22 -342q117 123 352 123q219 0 354.5 -128t135.5 -347q0 -236 -166 -375q-154 -129 -396 -129q-193 0 -337 84q-176 102 -177 281z" />
<glyph unicode="6" d="M119 678q0 319 149 516q168 219 477 219q160 0 281 -65q150 -80 150 -226q0 -66 -39 -104.5t-105 -38.5q-45 0 -75.5 29.5t-30.5 72.5q0 27 15 51.5t32 47.5q0 41 -96 71q-78 23 -136 23q-227 0 -338 -174q-92 -145 -92 -385q53 100 176 153q104 45 232 45 q225 0 358 -120q135 -127 135 -351q0 -223 -155 -352q-145 -123 -373 -123q-299 0 -442 215q-123 180 -123 496zM352 440q0 -158 91.5 -241.5t250.5 -83.5q160 0 252 83.5t92 241.5t-92 243t-252 85t-251 -85t-91 -243z" />
<glyph unicode="7" d="M156 889q0 37 9 108.5t9 108.5t-9 109.5t-9 109.5q0 92 65 92q49 0 60 -59v-96q53 137 202 137q94 0 252 -107.5t217 -107.5q63 0 101 51q-88 27 -88 90q0 82 108 82q127 0 127 -195q0 -172 -131 -303q-123 -115 -246 -229q-131 -158 -131 -397q0 -27 5 -82.5t5 -81.5 q0 -147 -102 -148q-117 0 -117 185q0 221 58 366q49 121 161 240q123 119 246 235q46 41 103 117l-4 4q-84 -70 -177 -69q-111 0 -259 95t-187 95q-125 0 -125 -141q0 -35 8 -104.5t8 -104.5q0 -88 -77 -88q-82 0 -82 88z" />
<glyph unicode="8" d="M102 418q0 297 312 377q-213 63 -213 268q0 184 143 272q119 74 315 74q197 0 316 -74q145 -90 145 -274q0 -198 -215 -266q313 -80 314 -385q0 -219 -177 -338q-154 -100 -383 -101q-231 0 -383 105q-174 121 -174 342zM287 420q0 -147 116 -225q102 -68 256 -68 q156 0 256 68q117 78 117 225t-117 225q-100 66 -256 66q-154 0 -253 -68q-119 -76 -119 -223zM381 1073q0 -104 92 -158q76 -43 186 -43q113 0 187 43q92 53 92 158q0 102 -92 156q-76 41 -187 41t-186 -43q-92 -52 -92 -154z" />
<glyph unicode="9" d="M106 938q0 223 158 350q145 119 375 119q293 0 436 -203q125 -178 125 -483q0 -322 -147 -522q-166 -227 -475 -228q-160 0 -289 68q-158 84 -158 229q0 66 38 108t101 42q49 0 82 -28t33 -75q0 -25 -27.5 -54.5t-27.5 -47.5q0 -49 104 -80q82 -25 148 -24q223 0 333 174 q93 143 93 381q-106 -197 -408 -197q-227 0 -360.5 123t-133.5 348zM283 938q0 -160 92 -244t252 -84t251 84t91 244t-91.5 244t-250.5 84q-160 0 -252 -84t-92 -244z" />
<glyph unicode=":" horiz-adv-x="684" d="M217 98q0 53 36 90t89 37t89 -37.5t36 -91.5q0 -51 -37 -88t-88 -37q-53 0 -89 37t-36 90zM217 776q0 53 36 89t89 36t89 -37t36 -90t-36 -90t-89 -37t-89 38t-36 91z" />
<glyph unicode=";" horiz-adv-x="684" d="M213 84q0 129 127 129q152 0 152 -207q0 -90 -60 -217q-66 -145 -141 -145q-49 0 -49 45q0 27 63.5 129t63.5 149q-156 0 -156 117zM213 774q0 53 37 90t90 37t90 -37t37 -90t-37 -90t-90 -37t-90 37t-37 90z" />
<glyph unicode="&#x3c;" horiz-adv-x="1746" d="M270 573v105l1207 493v-129l-1024 -417l1024 -416v-131z" />
<glyph unicode="=" horiz-adv-x="1746" d="M260 369v118h1227v-118h-1227zM260 762v119h1227v-119h-1227z" />
<glyph unicode="&#x3e;" horiz-adv-x="1746" d="M270 78v131l1024 416l-1024 417v129l1207 -493v-105z" />
<glyph unicode="?" horiz-adv-x="1150" d="M78 1047q0 188 164 292q141 90 340 91q203 0 333 -87q154 -100 154 -292q0 -154 -100 -242q-39 -37 -205 -121q-131 -66 -172 -143q-10 -20 -18.5 -79.5t-18.5 -82.5q-18 -39 -63 -39q-78 0 -78 92q0 172 127 277q117 72 233 143q127 80 127 195q0 127 -106 192 q-90 55 -226 55q-127 0 -225 -55q-119 -70 -119 -186q0 -58 41 -74q20 68 88 68q86 0 86 -82q0 -66 -49 -108t-117 -42q-94 0 -145 65.5t-51 162.5zM389 96q0 51 37 88t88 37q53 0 89 -36t36 -89t-36 -89t-89 -36t-89 36t-36 89z" />
<glyph unicode="@" horiz-adv-x="2097" d="M115 535q0 426 305 698q293 260 723 260q340 0 575 -174q264 -195 264 -522q0 -262 -149 -459q-164 -215 -420 -215q-203 0 -203 149h-4q-113 -150 -297 -149q-324 0 -323 340q0 219 129 383q139 178 352 178q186 0 256 -160l59 123h113l-90 -340q-66 -254 -66 -323 q0 -90 111 -91q178 0 299 195q104 168 104 356q0 293 -225 457q-201 147 -506 148q-377 0 -625.5 -244t-248.5 -619q0 -338 235 -534q221 -184 566 -185q362 0 647 193l45 -68q-305 -227 -676 -227q-401 0 -664 209q-287 227 -286 621zM729 457q0 -236 201 -236 q180 0 268 180q26 58 94 332q-35 193 -211 193q-170 0 -268 -156q-84 -133 -84 -313z" />
<glyph unicode="A" horiz-adv-x="1646" d="M0 61q0 29 20.5 53.5t49.5 24.5q10 0 32.5 -4t32.5 -4q74 0 111 31q31 27 57 100l381 1020q49 131 139 131q68 0 103 -39q27 -27 53 -100l364 -1012q25 -68 52 -94q37 -37 100 -37q8 0 21.5 4t21.5 4q109 0 109 -78q0 -35 -29 -54t-64 -19q-45 0 -133 10t-133 10 q-49 0 -148.5 -10t-148.5 -10q-82 0 -82 78q0 73 84 73h2q18 0 53 -4t54 -4q61 0 61 66q0 33 -12 69q-18 66 -37 131q-39 103 -92 103h-410q-41 0 -63.5 -63.5t-44.5 -127.5q-25 -76 -25 -129q0 -49 70 -49q18 0 53 4t53 4q90 0 90 -73q0 -78 -81 -78q-51 0 -154.5 10 t-155.5 10q-45 0 -132 -10t-130 -10q-35 0 -63.5 19.5t-28.5 53.5zM639 651l10 -16q20 -4 37 -4h277q14 0 34 6l11 18q-2 23 -9 39l-168 518l-180 -518q-8 -25 -12 -43z" />
<glyph unicode="B" horiz-adv-x="1449" d="M37 70q0 69 76 69h2q18 0 57 -6t57 -6q70 0 95 43q18 33 18 109v872q0 127 -104 127q-20 0 -61.5 -6t-61.5 -6q-78 0 -78 69q0 80 86 80q45 0 135 -9t135 -9q70 0 209 9t209 9q471 0 471 -338q0 -215 -235 -303q296 -72 296 -371q0 -215 -165 -323q-141 -90 -367 -90 q-66 0 -197 9t-196 9q-49 0 -147.5 -9t-147.5 -9q-86 0 -86 80zM518 264q0 -102 92 -127q35 -10 183 -10q366 0 366 281q0 174 -135 239q-96 47 -291 47q-125 0 -151 -8q-64 -23 -64 -121v-301zM518 891q0 -59 146 -60q197 0 284 33q150 53 150 213q0 127 -127 172 q-78 29 -234 29q-117 0 -145 -8q-74 -19 -74 -103v-276z" />
<glyph unicode="C" horiz-adv-x="1363" d="M88 698q0 309 152 510q168 221 469 222q250 0 385 -160q0 80 2 92q12 53 61 53q70 0 70 -67q0 -41 -7.5 -122t-7.5 -122q0 -37 7.5 -110.5t7.5 -110.5q0 -92 -74 -92q-39 0 -57.5 25.5t-20.5 124.5t-22 144q-43 92 -131 148.5t-189 56.5q-227 0 -346 -184 q-100 -158 -100 -397q0 -248 94 -404q117 -186 348 -186q205 0 297 119q47 61 86 217q29 118 79 118h1q82 0 82 -106q0 -238 -156 -371q-147 -125 -389 -125q-313 0 -483 211q-158 195 -158 516z" />
<glyph unicode="D" horiz-adv-x="1540" d="M37 61q0 78 82 78q18 0 55 -6t55 -6q115 0 115 133v887q0 66 -24.5 94.5t-90.5 28.5q-18 0 -57 -6.5t-57 -6.5q-78 0 -78 74q0 78 90 78q51 0 152.5 -7t152.5 -7q59 0 175 7t175 7q672 0 672 -702q0 -332 -168 -521q-173 -196 -499 -196h-3q-59 0 -175.5 9t-176.5 9 q-51 0 -151.5 -9t-149.5 -9q-94 0 -94 71zM522 295q0 -123 58 -152q33 -16 174 -16q516 0 516 586q0 301 -135.5 435t-438.5 134q-119 0 -146.5 -26.5t-27.5 -145.5v-815z" />
<glyph unicode="E" horiz-adv-x="1470" d="M41 70q0 73 76 73h2q18 0 53 -4t53 -4q72 0 97.5 31.5t25.5 105.5v879q0 123 -115 123q-18 0 -57 -8.5t-57 -8.5q-33 0 -55.5 23t-22.5 55q0 74 90 74q47 0 144.5 -6t144.5 -6h571q35 0 104.5 6t104.5 6q98 0 98 -104q0 -29 -6 -86.5t-6 -85.5q0 -39 6 -116t6 -116 q0 -86 -69 -86q-35 0 -58.5 26.5t-23.5 63.5q0 29 5 86.5t5 85.5q0 109 -42 144.5t-154 35.5h-326q-72 0 -94 -34q-16 -27 -17 -105v-235q0 -82 94 -82q125 0 166 14t50 66q2 16 2 161q0 82 69 82q66 0 66 -125q0 -41 -6.5 -122.5t-6.5 -122.5t6.5 -124t6.5 -124 q0 -125 -66 -125q-69 0 -69 87q0 16 2 41.5t2 35.5q0 104 -34 130.5t-142 26.5q-82 0 -97 -4q-43 -14 -43 -75v-342q0 -84 19 -111q23 -35 100 -35h344q113 0 155 38t42 146q0 29 -6.5 86.5t-6.5 86.5q0 37 23 65.5t59 28.5q72 0 72 -90q0 -39 -6 -115t-6 -115q0 -29 6 -86 t6 -86q0 -104 -100 -104q-33 0 -99.5 5t-99.5 5h-639q-43 0 -128 -5t-128 -5q-90 0 -90 80z" />
<glyph unicode="F" horiz-adv-x="1368" d="M41 70q0 73 72 73h2q18 0 57 -6t57 -6q70 0 97 37q22 30 22 102v881q0 119 -115 119q-18 0 -53 -6.5t-53 -6.5q-86 0 -86 74q0 78 98 78q61 0 182 -5t183 -5h491q35 0 102.5 5t102.5 5q98 0 98 -104q0 -29 -6 -86.5t-6 -85.5q0 -39 6 -116t6 -116q0 -82 -69 -82 q-35 0 -58.5 24.5t-23.5 61.5q0 29 5 86.5t5 85.5q0 109 -42 144.5t-154 35.5h-322q-72 0 -94 -34q-14 -27 -15 -105v-235q0 -72 56 -72h190q63 0 64 133q0 23 -2 56.5t-2 39.5q0 84 69 84q66 0 66 -125q0 -41 -6.5 -122.5t-6.5 -122.5t6.5 -124t6.5 -124q0 -125 -66 -125 q-69 0 -69 87q0 16 2 41.5t2 35.5q0 82 -15 110q-23 41 -96 41h-147q-51 0 -52 -73v-369q0 -123 121 -123q20 0 61.5 6t61.5 6q84 0 84 -73q0 -80 -96 -80q-53 0 -157.5 9t-158.5 9q-53 0 -157.5 -9t-157.5 -9q-90 0 -90 80z" />
<glyph unicode="G" horiz-adv-x="1544" d="M88 698q0 324 160 521q174 211 489 211q272 0 416 -164q0 84 2 94q10 55 62 55q69 0 69 -78q0 -37 -5 -106.5t-5 -104.5q0 -37 5 -108.5t5 -108.5q0 -78 -74 -78q-37 0 -53 19q-8 8 -29.5 141t-85.5 203q-94 102 -290 102q-238 0 -361 -182q-106 -156 -106 -405 q0 -250 94 -404q115 -186 348 -186q188 0 294.5 95t106.5 282q0 112 -108 112h-2q-23 0 -68 -4t-67 -4q-88 0 -88 76q0 65 97 65h3q53 0 159.5 -6t160.5 -6q39 0 116.5 6t116.5 6q86 0 86 -65q0 -76 -68 -76q-10 0 -28.5 4t-28.5 4q-74 0 -96 -69q-10 -37 -10 -133 q0 -55 12 -164t12 -164q0 -35 -21.5 -62.5t-54.5 -27.5q-79 0 -79 80q0 42 10 110h-4q-145 -207 -451 -207q-313 0 -483 211q-158 195 -158 516z" />
<glyph unicode="H" horiz-adv-x="1740" d="M37 70q0 73 76 73h2q20 0 62 -4t63 -4q104 0 104 119v897q0 119 -104 119q-20 0 -62.5 -4t-62.5 -4q-78 0 -78 73q0 80 90 80q47 0 139 -9t140 -9q49 0 145 9t145 9q111 0 111 -76q0 -77 -72 -77h-2q-16 0 -49 4t-49 4q-63 0 -85 -28t-22 -91v-332q57 0 174 -6t175 -6 q55 0 166.5 6t166.5 6v330q0 66 -22.5 93.5t-85.5 27.5q-16 0 -49 -4t-49 -4q-74 0 -74 77q0 76 110 76q49 0 147.5 -9t147.5 -9q47 0 139.5 9t139.5 9q90 0 90 -80q0 -73 -80 -73h-2q-18 0 -57 4t-58 4q-113 0 -112 -119v-895q0 -121 104 -121q20 0 61.5 4t61.5 4 q82 0 82 -71q0 -82 -90 -82q-47 0 -139.5 10t-139.5 10q-49 0 -146 -10t-147 -10q-112 0 -112 77q0 76 72 76h2q16 0 51 -4t51 -4q66 0 88 33q16 27 16 96v395q-57 0 -173.5 4.5t-174.5 4.5q-55 0 -166.5 -4.5t-167.5 -4.5v-405q0 -63 22.5 -91t84.5 -28q16 0 49 4t49 4 q74 0 74 -77q0 -76 -111 -76q-49 0 -145 10t-145 10q-47 0 -139.5 -10t-139.5 -10q-90 0 -90 80z" />
<glyph unicode="I" horiz-adv-x="921" d="M61 70q0 73 76 73h2q20 0 61.5 -6t61.5 -6q105 0 105 123v897q0 123 -105 123q-20 0 -61 -6t-62 -6q-78 0 -78 73q0 80 86 80q53 0 160 -9t160 -9q51 0 153.5 9t153.5 9q88 0 88 -80q0 -73 -78 -73h-2q-20 0 -61 6t-62 6q-102 0 -102 -123v-897q0 -123 102 -123 q20 0 61.5 6t61.5 6q80 0 80 -73q0 -80 -88 -80q-51 0 -153.5 9t-153.5 9q-53 0 -159.5 -9t-160.5 -9q-86 0 -86 80z" />
<glyph unicode="J" horiz-adv-x="1359" d="M49 389q0 123 83 216t204 93q82 0 139 -48t57 -128q0 -121 -110 -121q-98 0 -98 88q0 8 9 24.5t9 27.5q0 16 -14 16q-57 0 -88 -53q-27 -45 -27 -107q0 -125 98 -204q92 -74 221 -74q190 0 269 119q63 98 63 301v612q0 123 -129 123q-20 0 -62 -6t-63 -6q-78 0 -78 75 q0 78 86 78q55 0 169 -9t169 -9q49 0 145.5 9t143.5 9q84 0 84 -80q0 -73 -70 -73h-2q-18 0 -57 6t-57 6q-96 0 -96 -123v-621q0 -260 -129 -407q-137 -156 -394 -156q-203 0 -334 109q-141 115 -141 313z" />
<glyph unicode="K" horiz-adv-x="1566" d="M37 1335q0 78 98 78q45 0 133 -8t133 -8q47 0 140.5 8t140.5 8q100 0 100 -84q0 -27 -21.5 -49.5t-47.5 -22.5q-14 0 -45 4.5t-45 4.5q-59 0 -80 -37q-14 -27 -15 -92v-254q0 -59 60 -74q20 -4 106 -4q223 0 279 162q27 147 53 297q47 161 248 161h2q217 0 217 -194 q0 -139 -100 -139q-90 0 -90 88q0 12 12 28.5t12 32.5q0 43 -51 43q-90 0 -103.5 -110.5t-25.5 -223.5q-29 -139 -148 -192v-6q125 -31 170 -142q31 -76 31 -219v-45v-41q0 -90 14 -127q18 -51 72 -51q94 0 94 149q0 23 -2 72t-2 74q0 131 78 131q31 0 53.5 -25.5 t22.5 -56.5v-227q0 -254 -256 -254q-147 0 -201 82q-39 61 -39 200v78q2 51 2 78q0 152 -96 201q-68 35 -235 35q-176 0 -177 -82v-328q0 -68 25 -95.5t90 -27.5q18 0 55 6t56 6q78 0 77 -75q0 -78 -120 -78q-47 0 -139.5 9t-139.5 9q-51 0 -151.5 -9t-149.5 -9 q-90 0 -90 80q0 73 76 73h2q18 0 57 -6t57 -6q111 0 111 123v883q0 68 -24.5 98.5t-90.5 30.5q-18 0 -55 -4.5t-55 -4.5q-82 0 -82 78z" />
<glyph unicode="L" horiz-adv-x="1269" d="M41 70q0 33 22.5 55t55.5 22q18 0 57 -6t57 -6q115 0 115 119v897q0 119 -104 119q-20 0 -62.5 -4t-62.5 -4q-78 0 -78 73q0 80 90 80q49 0 149.5 -9t151.5 -9q47 0 142.5 9t142.5 9q119 0 119 -76q0 -33 -22.5 -55t-55.5 -22q-18 0 -53 4t-54 4q-68 0 -93.5 -25.5 t-25.5 -93.5v-870q0 -82 17 -109q23 -37 98 -37h244q115 0 161 37t46 147q0 29 -6.5 86.5t-6.5 86.5q0 37 22.5 65.5t59.5 28.5q70 0 70 -90q0 -39 -6 -115t-6 -115q0 -29 6 -86t6 -86q0 -104 -102 -104q-37 0 -108 9t-107 9h-480q-51 0 -154.5 -9t-154.5 -9q-90 0 -90 80z " />
<glyph unicode="M" horiz-adv-x="1937" d="M49 72q0 71 76 71h2q18 0 53 -4t53 -4q105 0 105 119v895q0 66 -23.5 91.5t-89.5 25.5q-18 0 -53 -4.5t-53 -4.5q-70 0 -70 82q0 74 111 74q41 0 120.5 -8t120.5 -8q27 0 77 8t75 8q94 0 131 -135l285 -1045l284 1045q37 135 129 135q25 0 76 -8t78 -8q41 0 121 8t121 8 q111 0 110 -74q0 -82 -69 -82q-18 0 -53 4.5t-54 4.5q-66 0 -90.5 -26t-24.5 -91v-895q0 -119 107 -119q18 0 53 4t53 4q78 0 78 -71q0 -82 -98 -82q-41 0 -123 10t-123 10q-43 0 -131 -10t-131 -10q-94 0 -94 82q0 29 18.5 50t46.5 21q14 0 41 -4t41 -4q55 0 76 33 q14 27 14 86q0 860 9 1016h-23l-338 -1151q-20 -68 -29 -84q-27 -45 -75 -45q-51 0 -78 43q-14 20 -33 84l-338 1153h-16q8 -156 8 -1016q0 -61 14 -84q18 -35 74 -35q14 0 43 4t43 4q63 0 64 -71q0 -82 -95 -82q-43 0 -131 10t-131 10q-41 0 -125 -10t-125 -10 q-94 0 -94 82z" />
<glyph unicode="N" horiz-adv-x="1708" d="M49 72q0 71 76 71h2q18 0 53 -4t53 -4q104 0 105 119v895q0 121 -113 121q-18 0 -53 -4t-53 -4q-70 0 -70 77q0 74 111 74q39 0 116.5 -8t116.5 -8q25 0 72 7t70 7q57 0 94 -41q20 -23 55 -92l539 -1079h8v954q0 68 -23.5 92.5t-91.5 24.5q-18 0 -56 -4t-56 -4 q-33 0 -59.5 22.5t-26.5 54.5q0 74 116 74q47 0 140.5 -8t140.5 -8t138 8t138 8q96 0 97 -78q0 -73 -72 -73h-2q-18 0 -54 4t-55 4q-104 0 -104 -117v-973q0 -190 -158 -190q-66 0 -102 35q-23 23 -60 94l-561 1091h-8v-956q0 -68 24.5 -93.5t92.5 -25.5q18 0 54 4t54 4 q78 0 78 -73q0 -80 -106 -80q-49 0 -149.5 9t-149.5 9q-45 0 -133.5 -9t-133.5 -9q-94 0 -94 82z" />
<glyph unicode="O" horiz-adv-x="1460" d="M88 698q0 322 158 519q170 213 483 213q309 0 483 -216q160 -199 160 -516q0 -319 -160 -514q-172 -213 -483 -213q-313 0 -483 211q-158 195 -158 516zM287 698q0 -240 98 -395q119 -184 344 -184t344 184q98 156 98 395q0 240 -98 398q-119 186 -344 186t-344 -186 q-98 -158 -98 -398z" />
<glyph unicode="P" horiz-adv-x="1327" d="M41 70q0 73 76 73h2q16 0 51 -6t51 -6q127 0 127 123v897q0 127 -104 127q-20 0 -62.5 -8t-62.5 -8q-78 0 -78 73q0 80 90 80q47 0 140.5 -9t140.5 -9q66 0 196.5 9t196.5 9q477 0 477 -407q0 -242 -176 -336q-113 -59 -342 -66q-211 -4 -234 -26q-6 -16 -6 -27v-299 q0 -68 25.5 -95.5t93.5 -27.5q18 0 55 6t56 6q78 0 77 -75q0 -78 -120 -78q-47 0 -139.5 9t-139.5 9q-51 0 -151.5 -9t-149.5 -9q-90 0 -90 80zM524 805q0 -45 49 -55q14 -4 86 -5q215 0 297 29q145 55 146 230q0 164 -109 227q-82 47 -260 47q-209 0 -209 -119v-354z" />
<glyph unicode="Q" horiz-adv-x="1458" d="M88 698q0 322 158 519q170 213 483 213q309 0 483 -216q160 -199 160 -516q0 -231 -86 -405q-100 -203 -295 -277v-102q0 -92 17 -131q25 -63 102 -64q88 0 115 60q0 4 18 112q8 59 60 60q78 0 77 -109q0 -113 -77.5 -182.5t-192.5 -69.5q-180 0 -233 115q-33 70 -33 275 q-43 -8 -107 -9q-319 0 -491 207q-158 193 -158 520zM287 694q0 -403 205 -514q-37 70 -37 158q0 117 86 182q78 61 196 62q168 0 221 -119q33 -74 33 -268q94 55 144 225q36 126 36 266v8q0 242 -98 400q-117 188 -344 188q-225 0 -344 -190q-98 -158 -98 -398zM561 287 q0 -84 51.5 -133.5t137.5 -49.5q51 1 94 19v115q0 106 -17 147q-27 72 -114 72q-70 0 -111 -50.5t-41 -119.5z" />
<glyph unicode="R" horiz-adv-x="1556" d="M41 70q0 73 76 73h2q18 0 57 -6t57 -6q115 0 115 123v897q0 127 -123 127q-18 0 -55 -8t-55 -8q-74 0 -74 73q0 80 90 80q49 0 148.5 -9t148.5 -9q68 0 201 9t198 9q455 0 455 -358q0 -137 -71.5 -228.5t-206.5 -109.5v-6q202 -35 202 -279q0 -33 -3 -92t-3 -84 q0 -131 86 -131q96 0 96 162q0 25 -3 76t-3 73q0 131 70 131q66 0 65 -82v-243q0 -131 -53 -192.5t-184 -61.5q-147 0 -201 84q-39 59 -39 198v78q2 51 2 78q0 154 -129 199q-65 24 -245 24h-15q-61 0 -82 -8q-41 -12 -41 -61v-328q0 -68 25.5 -95.5t93.5 -27.5q18 0 55 6 t56 6q78 0 77 -75q0 -78 -120 -78q-47 0 -139.5 9t-139.5 9q-51 0 -151.5 -9t-149.5 -9q-90 0 -90 80zM524 844q0 -45 49 -56q14 -2 86 -2q219 0 297 25q158 49 158 217q0 152 -117 209q-80 41 -252 41q-106 0 -143 -10q-78 -23 -78 -101v-323z" />
<glyph unicode="S" horiz-adv-x="1155" d="M94 57q0 35 7.5 104.5t7.5 104.5q0 43 -7.5 126t-7.5 126q0 104 78 105q63 0 74 -72l12 -164q16 -113 92 -178q96 -86 254 -86q139 0 221 61q92 70 93 205q0 158 -209 221q-193 53 -385 107q-209 88 -209 303q0 188 129 301q123 109 313 109q188 0 322 -111q0 88 63 88 q74 0 74 -55q0 -35 -6 -106.5t-6 -106.5t6 -106.5t6 -106.5q0 -90 -72 -90t-80 116q-8 164 -37 213q-63 117 -274 117q-117 0 -184 -59q-74 -61 -74 -176q0 -59 16 -99q37 -88 246 -135q283 -63 352 -100q180 -92 181 -299q0 -213 -132.5 -328t-347.5 -115q-202 0 -358 135 h-6q6 -49 6 -63q0 -72 -82 -72q-76 0 -76 86z" />
<glyph unicode="T" horiz-adv-x="1265" d="M41 909q0 39 7 116t7 116q0 29 -7 86t-7 86q0 102 117 102q61 0 184 -9t184 -9h213q61 0 185.5 9t185.5 9q115 0 115 -102q0 -29 -7.5 -86.5t-7.5 -85.5q0 -39 7.5 -116t7.5 -116q0 -86 -70 -86q-35 0 -58.5 27t-23.5 63q0 29 6 86.5t6 85.5q0 117 -57 154 q-45 31 -168 31q-88 0 -115 -33q-20 -25 -20 -111v-845q0 -78 29.5 -110t107.5 -32q16 0 49 6.5t50 6.5q92 0 92 -74q0 -88 -123 -88q-51 0 -149.5 12t-147.5 12t-147.5 -12t-149.5 -12q-47 0 -82 18q-41 25 -41 68q0 76 78 76q18 0 57 -6.5t58 -6.5q80 0 107.5 31t27.5 111 v845q0 88 -23.5 116t-116.5 28q-119 0 -161 -29q-59 -39 -60 -156q0 -29 6.5 -86t6.5 -86q0 -37 -24 -63.5t-58 -26.5q-70 0 -70 86z" />
<glyph unicode="U" horiz-adv-x="1703" d="M18 1335q0 80 88 80q47 0 140.5 -9t140.5 -9q49 0 146.5 9t146.5 9q109 0 108 -76q0 -82 -71 -82q-16 0 -50 6.5t-51 6.5q-63 0 -84.5 -28t-21.5 -91v-676q0 -188 77 -270t265 -82q182 0 260 79t78 261v686q0 63 -16 88q-23 33 -87 33q-16 0 -51 -6.5t-51 -6.5 q-74 0 -74 82q0 76 111 76q49 0 146.5 -9t146.5 -9q47 0 140 9t140 9q90 0 91 -80q0 -78 -82 -78q-20 0 -61.5 6.5t-61.5 6.5q-43 0 -74 -25.5t-31 -68.5v-709q0 -266 -126 -381t-396 -115q-285 0 -406.5 122t-121.5 407v651q0 119 -107 119q-20 0 -61 -6.5t-62 -6.5 q-78 0 -78 78z" />
<glyph unicode="V" horiz-adv-x="1646" d="M0 1335q0 35 28.5 56.5t65.5 21.5q55 0 164 -10t164 -10q43 0 129 10t129 10q80 0 80 -82q0 -69 -87 -69h-3q-18 0 -54 4t-55 4q-65 0 -65 -66q0 -35 12 -71l315 -928l316 928q16 49 16 84q0 53 -70 53q-18 0 -55 -4t-55 -4q-90 0 -90 69q0 82 86 82q43 0 127 -10 t127 -10q55 0 165.5 10t165.5 10q35 0 63 -21.5t28 -56.5q0 -29 -20.5 -51t-49.5 -22q-12 0 -35.5 4t-36.5 4q-70 0 -106 -35q-29 -27 -56 -98l-380 -1022q-27 -74 -50 -101q-35 -43 -98 -43q-61 0 -98 47q-18 27 -47 105l-367 1014q-49 133 -151 133q-8 0 -25.5 -4 t-28.5 -4q-98 0 -98 73z" />
<glyph unicode="W" horiz-adv-x="1994" d="M0 1343q0 72 94 72q53 0 163 -8t163 -8q37 0 113.5 8t113.5 8q82 0 82 -76q0 -77 -88 -77h-2q-16 0 -51 4t-51 4q-49 0 -66 -8q-29 -12 -29 -56q0 -39 15 -110l174 -879l233 1045q35 153 134 153h1q63 0 95 -47q20 -31 36 -106l236 -1045l174 879q16 82 16 110 q0 63 -98 64q-16 0 -50 -4t-50 -4q-90 0 -90 77q0 76 82 76q37 0 113.5 -8t113.5 -8q53 0 162.5 8t163.5 8q35 0 63.5 -19.5t28.5 -52.5t-23.5 -57t-54.5 -24q-14 0 -43 4t-43 4q-49 0 -76 -45q-12 -23 -26 -84l-230 -1014q-18 -78 -37 -109q-33 -51 -96 -51 q-106 0 -137 144l-232 1065l-231 -1065q-31 -143 -135 -144q-63 0 -96 51q-18 33 -37 109l-232 1014q-16 68 -26 88q-23 41 -72 41q-14 0 -45 -4t-45 -4q-31 0 -54.5 24.5t-23.5 56.5z" />
<glyph unicode="X" horiz-adv-x="1675" d="M0 70q0 31 24.5 52t57.5 21q16 0 49 -4t49 -4q70 0 160 115l393 495l-319 404q-53 66 -72 84q-47 41 -100 41q-16 0 -51 -6t-52 -6q-35 0 -58.5 23.5t-23.5 57.5q0 35 30 55.5t65 20.5q55 0 162.5 -10t162.5 -10q39 0 114 10t114 10q81 0 81 -78q0 -33 -19 -56t-48 -23 q-16 0 -47 6t-47 6q-59 0 -60 -25q0 -23 127 -190q72 -90 144 -182l241 319q12 18 33 57q-8 20 -66 21q-16 0 -46.5 -6t-47.5 -6q-66 0 -65 77q0 80 82 80q39 0 114.5 -10t114.5 -10q55 0 162.5 10t163.5 10q35 0 63.5 -20.5t28.5 -55.5t-23.5 -58t-58.5 -23q-16 0 -50 6 t-50 6q-76 0 -175 -125l-315 -404l383 -485q98 -125 168 -125q16 0 49 4t49 4q31 0 55.5 -21.5t24.5 -51.5q0 -80 -90 -80q-57 0 -173 9t-173 9q-41 0 -121 -9t-121 -9q-80 0 -80 82q0 71 70 71h2q16 0 50 -4t50 -4q68 0 68 37q0 39 -147 229q-84 104 -170 211 q-84 -106 -168 -211q-147 -190 -148 -227q0 -39 62 -39q18 0 53 4t53 4q70 0 70 -71q0 -82 -78 -82q-41 0 -121 9t-121 9q-57 0 -174 -9t-174 -9q-37 0 -63.5 22.5t-26.5 57.5z" />
<glyph unicode="Y" horiz-adv-x="1619" d="M0 1335q0 35 30.5 55.5t67.5 20.5q47 0 142.5 -9t142.5 -9q45 0 133 9t133 9q96 0 96 -80q0 -74 -79 -74q-16 0 -49 4.5t-50 4.5q-70 0 -69 -39q0 -43 151 -291q80 -129 162 -258l160 254q151 246 151 292q0 42 -69 42q-16 0 -49 -4.5t-50 -4.5q-78 0 -77 74q0 80 88 80 q49 0 146 -9t146 -9q45 0 134.5 9t134.5 9q37 0 65.5 -20.5t28.5 -55.5q0 -31 -21.5 -54.5t-50.5 -23.5q-14 0 -44.5 4.5t-45.5 4.5q-86 0 -151 -103l-408 -631v-280q0 -121 105 -121q20 0 61 6t61 6q82 0 82 -73q0 -82 -90 -82q-51 0 -155.5 10t-155.5 10t-151.5 -10 t-151.5 -10q-90 0 -90 82q0 73 78 73h2q20 0 62 -6t62 -6q102 0 103 121v280l-408 631q-35 55 -59 74q-35 29 -90 29q-14 0 -45 -4.5t-45 -4.5q-31 0 -52.5 24t-21.5 54z" />
<glyph unicode="Z" horiz-adv-x="1269" d="M76 111q0 68 63 145l824 1001h-484q-115 0 -160 -34.5t-45 -145.5q0 -29 6.5 -86t6.5 -86q0 -37 -23.5 -63.5t-58.5 -26.5q-74 0 -74 86q0 39 8 116t8 116q0 29 -8 86t-8 86q0 102 141 102q31 0 89.5 -6t87.5 -6h368q41 0 123 5t123 5q117 0 117 -82q0 -80 -78 -176 l-823 -1008h557q115 0 159.5 35t44.5 145q0 29 -6 86.5t-6 86.5q0 37 22.5 65.5t59.5 28.5q70 0 70 -90q0 -39 -6.5 -115t-6.5 -115q0 -29 6.5 -86t6.5 -86q0 -104 -111 -104q-33 0 -97.5 5t-97.5 5h-438q-39 0 -115.5 -4t-115.5 -4q-129 0 -129 119z" />
<glyph unicode="[" horiz-adv-x="1038" d="M291 -293v1497q0 113 10 144q20 70 105 69q31 0 95 -5t95 -5t91.5 5t90.5 5q94 0 94 -57t-135 -57q-25 0 -70.5 4t-70.5 4q-102 0 -135 -51q-25 -39 -25 -150v-1303q0 -109 25 -145q35 -51 143 -51q23 0 70 4t69 4q129 0 129 -61q0 -53 -94 -54q-31 0 -91 4.5t-91 4.5 q-33 0 -95.5 -4.5t-94.5 -4.5q-76 0 -101 70q-14 39 -14 133z" />
<glyph unicode="\" horiz-adv-x="577" d="M14 1360q0 39 47 39t70 -68l457 -1429q14 -45 14 -56q0 -39 -49 -39q-47 0 -70 70l-454 1426q-15 45 -15 57z" />
<glyph unicode="]" horiz-adv-x="1038" d="M166 -442q0 61 129 61q23 0 70 -4t69 -4q109 0 144 51q25 37 24 145v1303q0 109 -24 147q-35 53 -136 54q-25 0 -70.5 -4t-70.5 -4q-135 0 -135 57t94 57q31 0 91.5 -5t90.5 -5q31 0 95.5 5t95.5 5q84 0 104 -69q10 -31 11 -144v-1497q0 -94 -15 -133q-25 -70 -100 -70 q-33 0 -95.5 4.5t-95.5 4.5q-31 0 -91 -4.5t-91 -4.5q-94 0 -94 54z" />
<glyph unicode="^" horiz-adv-x="2097" d="M432 922l533 571h165l533 -571h-162l-452 450l-453 -450h-164z" />
<glyph unicode="_" horiz-adv-x="1048" d="M0 -373h1049v-123h-1049v123z" />
<glyph unicode="`" horiz-adv-x="1048" d="M332 1454q0 33 21.5 57.5t52.5 24.5q51 0 208 -154q135 -135 172 -190q-8 -25 -36 -25q-41 0 -224 115q-195 121 -194 172z" />
<glyph unicode="a" horiz-adv-x="1159" d="M49 272q0 193 176 260q164 35 328 68q176 37 176 154q0 90 -67 141q-61 43 -156 43q-59 0 -127 -25q-88 -31 -88 -77q2 -2 31 -45q18 -27 18 -50q0 -43 -32 -68.5t-75 -25.5q-122 0 -122 137q0 141 145 213q115 55 270 56q193 0 279 -83t86 -276v-473q0 -119 65 -119 q59 0 70 64q4 59 8 121.5t56 62.5q66 0 65 -108q0 -137 -35 -187q-44 -67 -176 -67h-4q-170 0 -178 137q-109 -137 -365 -137q-348 0 -348 284zM205 264q0 -78 59 -121q53 -41 133 -41q139 0 234 62q106 72 106 205v161q-51 -41 -200 -57q-172 -20 -226 -43 q-106 -47 -106 -166z" />
<glyph unicode="b" horiz-adv-x="1204" d="M-86 1339q0 61 82 62q23 0 68 -5t67 -5q25 0 72 5t71 5q76 0 76 -96q0 -80 -14 -416q111 168 328 168q221 0 348 -166q115 -150 114 -377q0 -244 -116 -387q-129 -156 -367 -156q-182 0 -301 115q0 -72 -10 -90q-16 -25 -84 -25q-70 0 -70 78v1079q0 90 -14 116t-90 26 h-21.5h-21.5q-117 0 -117 69zM336 432q0 -328 282 -328q174 0 263 121q75 105 75 282q0 175 -73 284q-86 127 -250 127q-147 0 -227 -105q-70 -96 -70 -248v-133z" />
<glyph unicode="c" horiz-adv-x="1071" d="M78 510q0 244 123 389q129 156 368 156q154 0 271 -70q139 -82 139 -225q0 -80 -52.5 -133.5t-131.5 -53.5q-96 0 -97 91q0 39 48.5 80.5t48.5 62.5q0 59 -82 90q-61 25 -131 25q-176 0 -265 -131q-75 -112 -75 -294q0 -167 73 -276q86 -123 242 -123q135 0 207 84 q33 37 82 156q35 84 80 84q78 0 78 -74q0 -170 -148 -280q-133 -100 -307 -101q-229 0 -356 160q-115 147 -115 383z" />
<glyph unicode="d" horiz-adv-x="1269" d="M78 496q0 240 108 391q125 170 355 170q212 0 327 -168v217q0 113 -23.5 142.5t-99.5 29.5h-24h-23q-96 0 -96 57q0 68 84 68h264q47 0 60.5 -18.5t13.5 -67.5v-1059q0 -100 20.5 -120.5t83.5 -22.5h39q98 0 99 -66q0 -63 -82 -63q-23 0 -70 7t-72 7q-23 0 -64.5 -7 t-64.5 -7q-41 0 -49 32q-2 10 -2 68q-119 -115 -305 -115q-229 0 -358 150q-121 141 -121 375zM248 512q0 -180 76 -285q86 -123 258 -123q286 0 286 328v133q0 154 -71 248q-78 104 -228 105q-162 0 -247 -127q-74 -109 -74 -279z" />
<glyph unicode="e" horiz-adv-x="1081" d="M78 510q0 236 115 383q127 160 356 160q211 0 335 -125t124 -336q0 -59 -20.5 -79.5t-78.5 -20.5h-663v-9q0 -160 73 -262q84 -119 238 -119q131 0 209 78q39 39 90 144q39 77 73 77h1q69 0 69 -71q0 -39 -24 -94q-119 -268 -426 -269q-229 0 -356 160q-115 147 -115 383 zM256 625h580v14q0 127 -78 203t-205 76q-129 0 -206 -81t-91 -212z" />
<glyph unicode="f" horiz-adv-x="704" d="M10 53q0 68 84 68h33q23 -2 31 -2q72 0 90 33q10 20 10 102v641q-31 0 -90 -3t-90 -3q-68 0 -68 59q0 68 82 68q23 0 69 -4t68 -4h29l-2 43q-1 15 -1 29q0 323 347 323q102 0 174 -41q86 -51 86 -148q0 -100 -94 -100q-96 0 -96 74q0 10 4 32.5t4 32.5q0 29 -80 29 q-190 0 -190 -221q0 -57 57 -57q18 0 55 6t56 6q90 0 90 -66q0 -63 -115 -63q-29 0 -76 4t-59 4v-641q0 -106 28 -125q12 -6 132 -6q90 0 90 -70q0 -63 -82 -63q-43 0 -131 8t-131 8q-39 0 -115 -8t-115 -8q-84 0 -84 63z" />
<glyph unicode="g" horiz-adv-x="1105" d="M80 -57q0 78 48 140t122 93q-147 57 -148 186q0 147 156 195q-41 76 -41 158q0 160 113 246q101 77 262 77h4q53 0 100 -8q0 92 65.5 143.5t160.5 51.5q88 0 149 -47q66 -53 66 -140q0 -108 -97 -108h-2q-84 0 -84 78q0 10 33 65q-16 37 -74 37q-98 0 -98 -123 q150 -94 150 -272q0 -164 -115 -252q-104 -78 -272 -78q-59 0 -155.5 30.5t-103.5 30.5q-29 0 -47 -25.5t-18 -55.5q0 -115 203 -115q31 0 81 3t64 3q195 0 318 -59q161 -80 161 -252q0 -168 -176 -252q-135 -63 -323 -64q-193 0 -326 62q-176 82 -176 252zM238 -49 q0 -100 131 -146q85 -30 205 -30h8q121 0 211 32q129 45 129 144q0 100 -127 147q-90 33 -213 33q-119 0 -213 -35q-131 -47 -131 -145zM371 713q0 -90 67 -144q61 -51 154 -51q90 0 154.5 52.5t64.5 142.5t-63.5 143t-155.5 53t-154 -51q-67 -55 -67 -145z" />
<glyph unicode="h" horiz-adv-x="1394" d="M-6 1339q0 66 82 66h268q45 0 57 -25q8 -16 9 -67v-441q131 166 340 166q248 0 340 -149q67 -109 67 -347v-7q0 -43 -2 -135.5t-2 -137.5q0 -102 21.5 -120.5t132.5 -18.5q88 0 88 -70q0 -63 -82 -63q-37 0 -112 8t-111 8q-41 0 -123 -8t-123 -8q-76 0 -76 63q0 70 82 70 q12 0 36.5 -2t35.5 -2q55 0 67 49q6 18 6 94v299q0 170 -49 248q-63 100 -221 100q-186 0 -262 -149q-53 -111 -53 -320v-178q0 -109 18 -124t129 -15q78 0 78 -70q0 -63 -74 -63q-41 0 -123 8t-123 8q-37 0 -111.5 -8t-111.5 -8q-82 0 -82 63q0 68 82 68h33q23 -2 31 -2 q72 0 90 33q10 20 10 102v866q0 166 -119 166q-14 0 -42.5 -2t-41.5 -2q-59 0 -59 57z" />
<glyph unicode="i" horiz-adv-x="696" d="M37 53q0 70 86 70q10 0 29.5 -4t29.5 -4q70 0 88 39q12 23 13 102v496q0 147 -107 147q-14 0 -40.5 -3t-39.5 -3q-59 0 -59 61q0 66 72 66h262q47 0 59 -18.5t12 -67.5v-672q0 -80 11 -104q20 -43 88 -43q10 0 28.5 4t26.5 4q88 0 88 -70q0 -63 -82 -63q-37 0 -110.5 8 t-110.5 8q-45 0 -132 -8t-130 -8q-82 0 -82 63zM221 1223q0 47 33 79.5t80 32.5t77.5 -32.5t30.5 -79.5t-31.5 -80t-76.5 -33q-47 0 -80 33t-33 80z" />
<glyph unicode="j" horiz-adv-x="696" d="M-180 -195q0 53 28.5 88t79.5 35q100 0 101 -100q0 -14 -15.5 -36.5t-15.5 -37.5q27 -35 113 -35q217 0 217 291v688q0 88 -2 103q-6 63 -41 86q-23 14 -76 14h-30.5h-31.5q-94 0 -94 60q0 63 70 63q25 0 73 -4t72 -4q25 0 71 4t71 4q45 0 57 -19.5t12 -70.5v-879 q0 -456 -373 -456h-2q-102 0 -186 51q-98 59 -98 155zM256 1223q0 47 33 79.5t80 32.5t78.5 -32.5t31.5 -79.5t-31.5 -80t-78.5 -33t-80 33t-33 80z" />
<glyph unicode="k" horiz-adv-x="1300" d="M14 63q0 27 20.5 46.5t47.5 19.5q14 0 39.5 -5t40.5 -5q68 0 88 28q14 23 14 97v850q0 162 -53 178q-16 4 -43 4h-33q-23 -2 -35 -2q-84 0 -84 61q0 66 78 66h230q55 0 74.5 -14.5t19.5 -71.5v-629q0 -55 43 -72q20 -6 92 -6q113 0 156 29q57 37 57 147q0 272 229 273 q240 0 240 -207q0 -123 -96 -123q-88 0 -88 86q0 14 12 36.5t12 37.5q0 45 -63 45q-66 0 -80 -66q-8 -74 -17 -145q-14 -98 -77 -150v-6q104 -49 135 -168q2 -6 22 -188q10 -90 66 -90q53 0 53 69v37q-2 27 -2 39q0 86 76 86q72 0 72 -90v-37q-2 -23 -3 -33 q0 -202 -208 -202h-2q-143 0 -183 82q-16 35 -24 182q-6 123 -64 178q-70 68 -180 68q-104 0 -119 -4q-59 -14 -59 -84v-166q0 -76 12 -97q17 -28 83 -28h5q14 0 42 5t42 5q80 0 80 -66q0 -75 -104 -75h-3q-39 0 -114.5 10t-114.5 10q-37 0 -111.5 -10t-113.5 -10 q-106 0 -107 75z" />
<glyph unicode="l" horiz-adv-x="696" d="M37 53q0 68 82 68h33q23 -2 30 -2q70 0 88 35q12 23 13 100v876q0 152 -107 152q-14 0 -42 -3t-40 -3q-57 0 -57 59q0 66 78 66h256q45 0 58 -19.5t13 -66.5v-1053q0 -102 20.5 -120.5t133.5 -18.5q88 0 88 -70q0 -63 -82 -63q-37 0 -110.5 8t-110.5 8q-45 0 -132 -8 t-130 -8q-82 0 -82 63z" />
<glyph unicode="m" horiz-adv-x="1966" d="M37 53q0 55 51 66h92q72 0 90 39q10 23 11 104v471q0 156 -68 162q-53 2 -107 2q-70 6 -69 55q0 68 86 68h235q70 0 70 -84v-35q-2 -25 -2 -35q100 174 311 174q168 0 283 -147q117 147 323 147q227 0 316 -159q63 -117 63 -357q0 -45 -3 -134t-3 -128 q0 -102 20.5 -120.5t131.5 -18.5q90 0 90 -70q0 -63 -82 -63q-37 0 -112.5 8t-114.5 8q-35 0 -105.5 -8t-105.5 -8q-66 0 -66 63q0 68 66 68h28q20 -2 31 -2q45 0 55 49q2 14 2 84v254q0 209 -20 272q-45 135 -209 135q-156 0 -215 -147q-37 -94 -37 -283v-231 q0 -100 15.5 -114.5t113.5 -14.5q72 0 72 -70q0 -63 -68 -63q-35 0 -107.5 8t-107.5 8t-103.5 -8t-103.5 -8q-68 0 -67 63q0 70 71 70q10 0 33 -2t33 -2q43 0 55 49q4 16 4 84v338q0 152 -32 219q-47 100 -181 100h-1q-263 0 -263 -413v-244q0 -94 10 -109q14 -20 99 -20 q71 0 71 -68q0 -65 -67 -65q-31 0 -94.5 8t-96.5 8q-39 0 -119.5 -8t-119.5 -8q-82 0 -82 63z" />
<glyph unicode="n" horiz-adv-x="1433" d="M37 53q0 55 51 66h92q66 0 86 31q14 23 15 94v506q0 153 -112 153h-1q-12 0 -38 -2t-36 -2q-57 0 -57 53q0 68 86 68h235q70 0 70 -88v-37q-2 -27 -2 -37q137 180 350 180q248 0 340 -149q68 -111 68 -354q0 -43 -2 -135.5t-2 -137.5q0 -96 20 -123q12 -14 39 -18 q18 -4 51 -2q41 4 45 4q86 0 86 -70q0 -63 -82 -63q-37 0 -112.5 8t-112.5 8q-41 0 -123 -8t-123 -8q-74 0 -73 63q0 70 82 70q14 0 38.5 -2t34.5 -2q53 0 66 47q4 16 4 92v299q0 170 -49 250q-63 102 -221 102q-186 0 -261 -149q-53 -109 -53 -320v-211q0 -68 15.5 -88 t56.5 -20h33q25 2 41 2q82 0 82 -70q0 -63 -74 -63q-41 0 -124 8t-124 8q-37 0 -111.5 -8t-111.5 -8q-82 0 -82 63z" />
<glyph unicode="o" horiz-adv-x="1200" d="M78 510q0 244 139 392.5t381 148.5q246 0 384 -146.5t138 -394.5q0 -250 -137 -389t-387 -139q-244 0 -381 142t-137 386zM244 510q0 -184 84 -287q91 -112 269 -112h3q174 0 268 114q86 106 86 285q0 182 -84 291q-94 121 -270 121t-270 -121q-86 -111 -86 -291z" />
<glyph unicode="p" horiz-adv-x="1269" d="M2 954q0 66 59 66q10 0 33 -4t33 -4q35 0 106.5 4t106.5 4q55 0 63 -41q2 -6 3 -90q109 168 323 168q223 0 350 -170q113 -152 113 -383q0 -233 -123 -379q-131 -158 -360 -158q-178 0 -303 119v-201q0 -90 15 -114.5t64 -24.5h41q31 2 52 2q90 0 90 -72q0 -65 -80 -65 h-2q-49 0 -145.5 8t-145.5 8q-33 0 -99.5 -8t-99.5 -8q-72 0 -71 61q0 72 67 72h31q20 -2 31 -2q66 0 82 43q8 20 8 100v834q0 80 -6 108q-16 63 -67.5 65.5t-102.5 4.5q-66 8 -66 57zM406 401q0 -141 75.5 -219t214.5 -78q166 0 250 125q74 109 74 283q0 170 -74 279 q-86 127 -248 127q-141 0 -221 -101q-71 -90 -71 -235v-181z" />
<glyph unicode="q" horiz-adv-x="1214" d="M82 496q0 240 108 391q125 170 355 170q215 0 325 -168q0 90 4 100q14 31 84 31q51 0 62.5 -11.5t11.5 -62.5v-1077q0 -88 15.5 -112.5t62.5 -24.5h41q31 2 51 2q94 0 94 -74q0 -61 -88 -61q-39 0 -117.5 8t-117.5 8q-47 0 -142.5 -8t-142.5 -8q-82 0 -82 63q0 72 94 72 q16 0 48 -3t45 -3q55 0 71 47q6 20 6 94v217q-127 -115 -305 -115q-229 0 -360 150q-123 141 -123 375zM252 512q0 -174 74 -283q86 -125 252 -125q139 0 215.5 78t76.5 219v181q0 143 -75 235q-80 100 -222 101q-162 0 -247 -127q-74 -109 -74 -279z" />
<glyph unicode="r" horiz-adv-x="1044" d="M37 53q0 55 49 66h92q72 0 90 39q10 23 11 104v483q0 158 -109 158q-14 0 -41 -3t-39 -3q-53 0 -53 55q0 68 82 68h235q72 0 72 -76q0 -12 -2 -33q-2 -27 -2 -34q84 172 272 172q127 0 210 -80t83 -207q0 -193 -164 -193q-112 0 -112 101q0 47 58 75.5t58 57.5 q0 49 -52 84t-103 35q-150 0 -201 -166q-29 -92 -29 -291v-213q0 -84 15.5 -107.5t62.5 -23.5h39q29 2 49 2q92 0 92 -70q0 -63 -84 -63q-45 0 -137 8t-137 8q-37 0 -113.5 -8t-113.5 -8q-78 0 -78 63z" />
<glyph unicode="s" horiz-adv-x="1032" d="M98 45q0 27 6.5 82t6.5 82t-6.5 80t-6.5 80q0 31 21.5 53t50.5 22q51 0 59 -49q4 -57 9 -114q14 -78 81 -123q86 -59 234 -60q238 0 238 183q0 106 -170 141q-309 61 -320 65q-170 70 -170 258q0 154 119 234q102 70 262 70q166 0 274 -93q-2 12 -2 27q0 66 56 66 q53 0 53 -111q0 -41 -6 -124t-6 -126q0 -70 -62 -70q-45 0 -55 78q-14 109 -41 148q-55 78 -211 78q-96 0 -158 -37q-74 -45 -73 -135q0 -106 172 -142q160 -31 321 -61q172 -63 172 -240q0 -164 -121 -258q-111 -86 -280 -86q-208 0 -312 113q0 -113 -69 -113q-66 0 -66 82 z" />
<glyph unicode="t" horiz-adv-x="858" d="M25 948q0 72 84 72h26q16 -2 25 -2q51 0 51 33v198q0 66 74 66q84 0 84 -119q0 -23 -3.5 -67t-3.5 -62q0 -27 5 -41q14 -6 54 -6q24 0 56 2q50 3 84.5 3t52.5 -3q68 -14 68 -72q0 -71 -88 -71h-2h-201q-29 0 -29 -60v-461q0 -133 13 -168q25 -81 125 -81h2q109 0 135 100 q6 29 6 184q0 98 72 99q86 0 86 -144q0 -381 -314 -381q-162 0 -227 90q-55 76 -55 246v516q0 31 -6 51q-14 10 -45 11h-25q-16 -2 -25 -2q-80 0 -79 69z" />
<glyph unicode="u" horiz-adv-x="1388" d="M-2 963q0 61 78 61q27 0 79 -4t78 -4q18 0 52 4t53 4q47 0 55 -35q4 -10 4 -76v-450q0 -174 49 -254q61 -104 222 -105q186 0 260 152q53 109 53 322v176q0 78 -4 94q-14 49 -68 49h-98q-53 10 -53 66q0 61 73 61q25 0 73 -4t73 -4q16 0 50 4t50 4q47 0 56 -35 q4 -10 4 -76v-575q0 -133 16 -174t92 -41h22.5h20.5q84 0 84 -57q0 -72 -74 -72h-237q-70 0 -70 88q0 14 2 41t2 37q-143 -180 -352 -180q-250 0 -342 151q-68 111 -68 352q0 45 2.5 135.5t2.5 135.5q0 100 -13.5 122.5t-74.5 22.5q-8 0 -27 -2h-29q-96 0 -96 66z" />
<glyph unicode="v" horiz-adv-x="1257" d="M-45 956q0 68 94 68q45 0 132 -10t132 -10q33 0 95.5 10t93.5 10q70 0 69 -63q0 -68 -71 -68q-12 0 -37 4t-37 4q-45 0 -45 -53q0 -35 111 -334q68 -180 135 -360q68 180 135 358q111 299 110 336q0 53 -41 53q-12 0 -37.5 -4t-37.5 -4q-72 0 -72 68q0 63 70 63 q31 0 93 -10t95 -10q45 0 132 10t132 10q96 0 97 -68q0 -63 -91 -63q-12 0 -36.5 4t-36.5 4q-70 0 -115 -115l-287 -737q-28 -74 -110 -74q-78 0 -107 74l-289 737q-45 115 -112 115q-12 0 -38 -4t-38 -4q-88 0 -88 63z" />
<glyph unicode="w" horiz-adv-x="1724" d="M-57 956q0 68 102 68q41 0 125 -10t125 -10q37 0 112.5 10t112.5 10q90 0 90 -66q0 -65 -91 -65h-3q-16 0 -48 4t-48 4q-47 0 -47 -59q0 -53 73 -350q50 -187 97 -373l182 782q29 127 123 127q90 0 121 -127l186 -782q47 188 94 377q76 303 76 352q0 53 -47 53 q-16 0 -49 -4t-49 -4q-94 0 -95 65q0 66 91 66q39 0 113.5 -10t113.5 -10q41 0 125 10t125 10q94 0 94 -66q0 -65 -83 -65h-3q-12 0 -38 4t-38 4q-57 0 -82 -31q-16 -20 -33 -84l-141 -540q-31 -119 -53 -166q-49 -104 -121 -105q-92 0 -131 84q-14 29 -43 166l-133 637 l-137 -637q-31 -141 -41 -166q-39 -84 -133 -84q-104 0 -175 271l-141 540q-16 66 -35 86q-27 29 -86 29q-10 0 -32.5 -4t-34.5 -4q-90 0 -90 63z" />
<glyph unicode="x" horiz-adv-x="1261" d="M2 57q0 66 78 66q8 0 23.5 -4t23.5 -4q59 0 115 67l286 344l-254 301q-57 68 -122 68q-8 0 -24.5 -4t-25.5 -4q-84 0 -84 69q0 63 82 64q37 0 112 -8t112 -8q29 0 86 8t86 8q70 0 69 -59q0 -74 -82 -74q-6 0 -17 4t-17 4q-27 0 -27 -14q0 -20 90 -125q54 -64 109 -125 q55 61 110 123q84 98 84 127q0 14 -27 14q-8 0 -25.5 -4t-25.5 -4q-66 0 -65 65q0 68 73 68q27 0 83.5 -8t84.5 -8q37 0 113 8t113 8q80 0 80 -64q0 -69 -82 -69h-2q-8 0 -24.5 4t-25.5 4q-68 0 -122 -68l-250 -303l286 -342q56 -67 115 -67h2q8 0 23.5 4t23.5 4 q76 0 76 -66q0 -67 -70 -67h-2q-33 0 -99.5 9t-98.5 9q-37 0 -110 -9t-109 -9q-74 0 -74 63q0 70 82 70q12 0 34.5 -4t34.5 -4q31 0 31 16q-16 43 -108 148q-66 74 -129 145q-63 -74 -127 -148q-109 -129 -109 -145t33 -16q10 0 32.5 4t32.5 4q82 0 82 -70q0 -63 -73 -63 q-37 0 -110 9t-110 9q-33 0 -97 -9t-97 -9q-76 0 -76 67z" />
<glyph unicode="y" horiz-adv-x="1255" d="M-25 -180q0 61 35 100t94 39q104 0 105 -90q0 -25 -28.5 -55.5t-28.5 -46.5q0 -39 100 -39q104 0 197.5 90t93.5 192q0 29 -4 39l-275 737q-43 115 -108 115q-12 0 -36 -4t-36 -4q-86 0 -86 63q0 68 98 68q41 0 123 -10t123 -10q31 0 92.5 10t91.5 10q63 0 64 -63 q0 -68 -68 -68q-12 0 -34.5 4t-34.5 4q-43 0 -43 -53q0 -14 235 -660q229 645 229 660q0 53 -47 53q-12 0 -33.5 -4t-33.5 -4q-66 0 -66 68q0 63 64 63q29 0 90 -10t92 -10q39 0 114.5 10t114.5 10q86 0 86 -66q0 -65 -75 -65h-2q-10 0 -29 4t-29 4q-61 0 -104 -115 l-273 -737q-167 -455 -493 -455q-115 0 -191 56q-84 59 -84 170z" />
<glyph unicode="z" horiz-adv-x="1046" d="M68 98q0 61 47 111l647 674h-393q-66 0 -93 -13q-38 -18 -38 -72q0 -17 4 -45t4 -42q0 -80 -70 -80q-61 0 -61 80q0 20 2 60t2 60q0 12 -2 39v39q0 111 92 111q18 0 57 -4t58 -4h413q16 0 51 4t52 4q123 0 123 -94q0 -43 -58 -103l-649 -676h451q70 0 100 17q41 23 41 86 q0 20 -4 61t-4 62q0 94 69 94q61 0 62 -96q0 -33 -2 -99.5t-2 -99.5q0 -117 -6 -133q-16 -45 -105 -45q-106 0 -321.5 3t-321.5 3q-145 0 -145 98z" />
<glyph unicode="{" horiz-adv-x="1048" d="M176 479v129l45 -2q152 -6 211 82q45 68 45 217q0 41 -5 131t-5 133q0 221 106 289q82 53 271 53h35v-129l-48 2q-127 6 -174 -55q-43 -53 -43 -180q0 -39 6.5 -129t6.5 -135q0 -283 -209 -342q207 -51 207 -348q0 -43 -4.5 -128t-4.5 -122q0 -133 45.5 -186.5 t217.5 -53.5v-129h-35q-233 0 -316 98q-63 76 -63 265q0 37 3 125t3 137q0 168 -61.5 223t-233.5 55z" />
<glyph unicode="|" horiz-adv-x="1048" d="M459 -496v2098h131v-2098h-131z" />
<glyph unicode="}" horiz-adv-x="1048" d="M170 -295q6 0 22.5 -2t24.5 -2q135 0 178 63q33 49 33 191q0 33 -3 108.5t-3 116.5q0 309 209 363q-207 59 -207 336q0 45 6 134t6 130q0 131 -47 188q-31 39 -102 49q-27 4 -117 4v127h35q190 0 270 -53q109 -72 109 -358q0 -45 -3 -118t-3 -93q0 -170 63 -227.5 t233 -53.5v-129q-186 0 -241 -63.5t-55 -218.5q0 -49 3 -137.5t3 -125.5q0 -184 -64 -260q-80 -98 -307 -98h-43v129z" />
<glyph unicode="~" horiz-adv-x="1746" d="M182 471v137q213 150 396 150q104 0 298.5 -72t294.5 -72q165 0 396 162v-133q-207 -147 -396 -147q-102 0 -296.5 69.5t-296.5 69.5q-164 0 -396 -164z" />
<glyph unicode="&#xa4;" horiz-adv-x="1269" d="M88 434l211 209q-90 121 -90 262q0 143 90 262l-211 211l74 76l211 -213q121 94 262 94q145 0 266 -94l209 213l74 -76l-209 -211q88 -115 88 -262t-88 -262l209 -209l-74 -76l-209 211q-119 -90 -266 -90t-262 90l-211 -211zM315 909q0 -133 95.5 -228t228.5 -95 q131 0 225 96t94 227t-94 225.5t-225 94.5t-227.5 -94.5t-96.5 -225.5z" />
<glyph unicode="&#xa6;" horiz-adv-x="1048" d="M459 -358v776h131v-776h-131zM459 690v776h131v-776h-131z" />
<glyph unicode="&#xa7;" horiz-adv-x="1048" d="M86 621q0 199 188 301q-92 82 -92 192q0 145 103 234q96 82 243 82q109 0 209 -82q0 90 64 90q76 0 76 -58q0 -33 -5.5 -98t-5.5 -98q0 -29 5.5 -86.5t5.5 -85.5q0 -74 -76 -74q-63 0 -78 90q-20 147 -31 168q-41 90 -174 90q-70 0 -117 -41t-47 -110q0 -96 158 -191 q145 -86 293 -172q158 -121 158 -280q0 -203 -201 -291q104 -86 104 -217q0 -137 -110 -226q-102 -82 -244 -82q-160 0 -258 91q0 -100 -66 -101q-78 0 -77 58q0 33 6 98t6 98q0 29 -6 86t-6 86q0 76 73 76q84 0 84 -111q0 -10 -4 -32.5t-4 -32.5q0 -182 232 -182 q78 0 137 38q68 45 67 119q0 92 -157 195q-147 92 -295 186q-158 125 -158 273zM242 664q0 -59 34 -105q40 -52 400 -283q123 66 123 181q0 117 -189 233l-239 150q-129 -66 -129 -176z" />
<glyph unicode="&#xa9;" horiz-adv-x="2097" d="M147 588q0 377 261.5 641t638.5 264q401 0 654 -252t253 -653q0 -395 -255 -649t-652 -254q-385 0 -642.5 259t-257.5 644zM258 588q0 -319 235.5 -556t553.5 -237q328 0 562 232.5t234 560.5q0 336 -230.5 565t-565.5 229q-307 0 -548 -243.5t-241 -550.5zM610 571 q0 225 99 367q113 164 327 164q179 0 277 -117q0 59 2 68q8 39 45 39q49 0 49 -50q0 -29 -5 -88t-5 -88q0 -27 5 -80t5 -79q0 -66 -53 -66t-53 82q0 119 -62 197q-68 82 -186 81q-164 0 -250 -133q-72 -113 -72 -286q0 -178 68 -289q84 -135 250 -135q150 0 215 84 q35 45 61 159q20 84 57 84q59 0 60 -77q0 -170 -109.5 -263.5t-283.5 -93.5q-225 0 -338 152q-102 137 -103 368z" />
<glyph unicode="&#xab;" horiz-adv-x="1052" d="M102 524q0 27 111 158q70 78 139 158q29 35 80 34q59 0 60 -43q0 -33 -106.5 -155.5t-106.5 -151.5q0 -25 106.5 -149.5t106.5 -157.5q0 -41 -60 -41q-53 0 -80 33q-68 80 -137 160q-113 135 -113 155zM520 524q8 41 111 160q70 78 139 156q29 35 78 34q61 0 61 -43 q0 -31 -106.5 -158.5t-106.5 -148.5q0 -23 106.5 -149.5t106.5 -157.5q0 -41 -61 -41q-53 0 -78 31q-68 80 -137 160q-106 127 -113 157z" />
<glyph unicode="&#xac;" horiz-adv-x="1746" d="M260 618v119h1182v-471h-119v352h-1063z" />
<glyph unicode="&#xad;" horiz-adv-x="690" d="M106 524q0 76 66 76h373q66 0 65 -76q0 -76 -65 -75h-373q-66 0 -66 75z" />
<glyph unicode="&#xae;" horiz-adv-x="2097" d="M147 588q0 377 261.5 641t638.5 264q401 0 654 -252t253 -653q0 -397 -255 -649t-652 -252q-383 0 -641.5 258t-258.5 643zM258 588q0 -319 235.5 -557t553.5 -238q328 0 562 234.5t234 560.5q0 336 -230.5 568.5t-565.5 232.5q-307 0 -548 -247t-241 -554zM555 125 q0 53 57 53q14 0 41 -4t41 -4q82 0 82 88v647q0 90 -88 90q-14 0 -39.5 -5t-40.5 -5q-53 0 -53 51q0 59 66 60q35 0 106.5 -7.5t106.5 -7.5q49 0 144 7.5t144 7.5q328 0 328 -258q0 -98 -52.5 -165t-148.5 -79v-4q147 -27 148 -201q0 -25 -3 -69t-3 -62q0 -88 59 -88 q72 0 72 119q0 16 -2 52t-2 52q0 92 49 92q47 0 47 -59v-174q0 -96 -37 -137q-39 -47 -133 -47q-133 0 -162 98q-10 33 -10 217q0 111 -90 143q-49 18 -189 19q-90 0 -90 -51v-236q0 -88 86 -88q14 0 40 4t40 4q55 0 55 -53q0 -57 -86 -57q-33 0 -100.5 7t-99.5 7 q-37 0 -109 -7t-108 -7q-66 0 -66 57zM903 684q0 -33 35 -41q10 -2 63 -2q156 0 213 18q115 35 115 156q0 111 -84 152q-57 29 -182 28q-76 0 -102 -8q-58 -17 -58 -72v-231z" />
<glyph unicode="&#xb0;" horiz-adv-x="737" d="M68 1153q0 119 91 207t210 88t210 -88t91 -207q0 -121 -91.5 -209t-211.5 -88q-123 0 -211 87t-88 210zM205 1153q0 -76 45 -130t119 -54t118.5 54t44.5 130t-45 127t-118 51q-74 0 -119 -51t-45 -127z" />
<glyph unicode="&#xb1;" horiz-adv-x="1746" d="M260 41v121h1227v-121h-1227zM260 737v119h555v352h119v-352h553v-119h-553v-352h-119v352h-555z" />
<glyph unicode="&#xb6;" horiz-adv-x="1048" d="M78 1157q0 170 119 266q111 92 282 93h492v-82h-127v-1434h-99v1434h-184v-1434h-98v801q-168 8 -273 96q-113 96 -112 260z" />
<glyph unicode="&#xb7;" horiz-adv-x="659" d="M205 702q0 53 35.5 89t89.5 36q53 0 90 -36.5t37 -90.5q0 -51 -38 -89t-89 -38q-53 0 -89 38t-36 91z" />
<glyph unicode="&#xbb;" horiz-adv-x="1052" d="M154 217q0 33 102 151.5t111 157.5q-8 31 -115 156q-98 118 -98 149q0 43 59 43q53 0 82 -34q70 -78 139 -158q109 -127 109 -158q0 -20 -113 -155q-68 -80 -135 -160q-27 -33 -82 -33q-59 0 -59 41zM565 217q0 25 107.5 153t107.5 156q0 18 -107.5 150t-107.5 155 q0 43 62 43q51 0 80 -34q70 -80 139 -158q111 -131 110 -158q0 -20 -112 -155q-70 -80 -137 -160q-27 -33 -80 -33q-61 0 -62 41z" />
<glyph unicode="&#x2000;" horiz-adv-x="801" />
<glyph unicode="&#x2001;" horiz-adv-x="1602" />
<glyph unicode="&#x2002;" horiz-adv-x="801" />
<glyph unicode="&#x2003;" horiz-adv-x="1602" />
<glyph unicode="&#x2004;" horiz-adv-x="534" />
<glyph unicode="&#x2005;" horiz-adv-x="400" />
<glyph unicode="&#x2006;" horiz-adv-x="267" />
<glyph unicode="&#x2007;" horiz-adv-x="267" />
<glyph unicode="&#x2008;" horiz-adv-x="200" />
<glyph unicode="&#x2009;" horiz-adv-x="320" />
<glyph unicode="&#x200a;" horiz-adv-x="89" />
<glyph unicode="&#x2010;" horiz-adv-x="690" d="M106 524q0 76 66 76h373q66 0 65 -76q0 -76 -65 -75h-373q-66 0 -66 75z" />
<glyph unicode="&#x2011;" horiz-adv-x="690" d="M106 524q0 76 66 76h373q66 0 65 -76q0 -76 -65 -75h-373q-66 0 -66 75z" />
<glyph unicode="&#x2012;" horiz-adv-x="690" d="M106 524q0 76 66 76h373q66 0 65 -76q0 -76 -65 -75h-373q-66 0 -66 75z" />
<glyph unicode="&#x2013;" horiz-adv-x="1048" d="M0 467v115h1049v-115h-1049z" />
<glyph unicode="&#x2014;" horiz-adv-x="2097" d="M0 467v115h2097v-115h-2097z" />
<glyph unicode="&#x2018;" horiz-adv-x="659" d="M188 1059q0 88 70 227q76 156 148 156q51 0 51 -47q0 -12 -73 -112.5t-73 -184.5q160 0 160 -117q0 -129 -129 -129q-80 0 -121 68q-33 53 -33 139z" />
<glyph unicode="&#x2019;" horiz-adv-x="659" d="M209 1296q0 59 36 96.5t95 37.5q80 0 119 -70q33 -55 33 -141q0 -88 -70 -228q-76 -156 -148 -155q-49 0 -49 47q0 23 71 116t71 181q-158 0 -158 116z" />
<glyph unicode="&#x201a;" horiz-adv-x="659" d="M197 84q0 57 35.5 93t95.5 36q152 0 151 -207q0 -92 -65 -229q-74 -154 -152 -154q-49 0 -49 45q0 31 71.5 134.5t71.5 164.5q-160 0 -159 117z" />
<glyph unicode="&#x201c;" horiz-adv-x="1030" d="M176 1059q0 90 68 227q76 156 149 156q51 0 51 -47q0 -12 -72.5 -111.5t-72.5 -185.5q160 0 160 -117q0 -129 -129 -129q-80 0 -121 68q-33 53 -33 139zM573 1059q0 88 68 227q74 156 147 156q51 0 52 -47q0 -10 -72 -110.5t-72 -186.5q160 0 160 -117q0 -57 -36 -93 t-95 -36q-152 0 -152 207z" />
<glyph unicode="&#x201d;" horiz-adv-x="1030" d="M195 1296q0 59 36.5 96.5t96.5 37.5q80 0 118 -70q33 -55 33 -141q0 -90 -67 -228q-76 -156 -150 -155q-49 0 -49 47q0 20 70.5 114.5t70.5 182.5q-160 0 -159 116zM592 1296q0 59 36 96.5t93 37.5q80 0 121 -70q33 -55 32 -141q0 -88 -69 -228q-76 -156 -150 -155 q-49 0 -49 47q0 14 72 110.5t72 186.5q-158 0 -158 116z" />
<glyph unicode="&#x201e;" horiz-adv-x="1030" d="M188 84q0 57 36 93t95 36q152 0 152 -207q0 -92 -65 -229q-74 -154 -152 -154q-49 0 -49 45q0 31 71.5 134.5t71.5 164.5q-160 0 -160 117zM582 84q0 59 36.5 94t96.5 35q152 0 151 -207q0 -90 -65 -229q-74 -154 -150 -154q-51 0 -51 45q0 16 70.5 114.5t70.5 184.5 q-160 0 -159 117z" />
<glyph unicode="&#x2022;" horiz-adv-x="1236" d="M315 780q0 125 89.5 213t213.5 88q123 0 213.5 -89t90.5 -212q0 -125 -90.5 -215t-215.5 -90t-213 90t-88 215z" />
<glyph unicode="&#x2026;" horiz-adv-x="2097" d="M223 94q0 53 36 90t89 37t90 -37t37 -90t-37 -90t-90 -37t-89 37t-36 90zM922 94q0 53 35.5 90t89.5 37q53 0 90 -37t37 -90q0 -51 -38 -89t-89 -38q-53 0 -89 37t-36 90zM1622 94q0 53 36 90t89 37t90 -37t37 -90q0 -51 -38 -89t-89 -38q-53 0 -89 37t-36 90z" />
<glyph unicode="&#x202f;" horiz-adv-x="320" />
<glyph unicode="&#x2039;" horiz-adv-x="634" d="M102 524q0 27 111 158q70 78 139 158q29 35 80 34q59 0 60 -43q0 -33 -106.5 -155.5t-106.5 -151.5q0 -25 106.5 -149.5t106.5 -157.5q0 -41 -60 -41q-53 0 -80 33q-68 80 -137 160q-113 135 -113 155z" />
<glyph unicode="&#x203a;" horiz-adv-x="634" d="M147 217q0 18 107.5 147.5t107.5 161.5q0 20 -107.5 154.5t-107.5 150.5q0 43 62 43q53 0 82 -34q70 -78 137 -158q113 -131 113 -158q0 -10 -250 -317q-25 -31 -82 -31q-61 0 -62 41z" />
<glyph unicode="&#x205f;" horiz-adv-x="400" />
<glyph unicode="&#x2122;" horiz-adv-x="1794" d="M37 1202q0 20 4 62.5t4 62.5q0 16 -4 46t-4 46q0 55 63 56q33 0 99.5 -5.5t99.5 -5.5h119q33 0 98.5 5.5t97.5 5.5q61 0 62 -56q0 -16 -4 -46t-4 -46q0 -20 4 -62t4 -63q0 -47 -37 -47q-45 0 -45 64q0 16 3 42.5t3 34.5q0 63 -27.5 82t-93.5 19q-47 0 -60 -15.5 t-13 -62.5v-457q0 -74 57 -74q10 0 33.5 2.5t35.5 2.5q51 0 52 -39q0 -49 -68 -49q-27 0 -80 7t-80 7t-80 -7t-79 -7q-68 0 -68 47q0 39 47 39q10 0 30.5 -2.5t26.5 -2.5q74 0 74 76v457q0 53 -16.5 65.5t-59.5 12.5q-119 0 -118 -86q0 -14 3 -49t3 -58q0 -49 -45 -49 q-37 0 -37 47zM727 750q0 35 37 38q-49 -4 63 -4q56 1 56 64v483q0 63 -56 64q-10 0 -31.5 -2t-31.5 -2q-37 0 -37 43q0 41 59 41q23 0 66 -5.5t66 -5.5q14 0 40.5 5.5t40.5 5.5q49 0 70 -74l154 -563l153 563q20 74 70 74q14 0 45 -5.5t45 -5.5q20 0 62 5.5t63 5.5 q59 0 59 -41q0 -39 -34 -43q29 4 -62 4q-61 0 -61 -64v-483q0 -61 57 -62h29q18 2 28 2q43 0 43 -38q0 -45 -53 -45q-23 0 -67 6t-66 6q-25 0 -71 -6t-70 -6q-51 0 -52 45q0 33 29 36q-18 -2 51 -2q49 0 49 64v547h-4l-186 -625q-10 -35 -18.5 -45t-38.5 -20q-33 8 -43 22 q-6 8 -17 43l-182 625h-4v-551q0 -57 43 -58h22q18 2 29 2q35 0 35 -38q0 -45 -51 -45q-23 0 -67 6t-66 6q-25 0 -72 -6t-72 -6q-51 0 -51 45z" />
<glyph unicode="&#xe000;" horiz-adv-x="1024" d="M0 0v1024h1024v-1024h-1024z" />
</font>
</defs>
</svg>
